<svg xmlns="http://www.w3.org/2000/svg" width="113.504" height="50.241" viewBox="0 0 113.504 50.241">
  <g id="Axeria_Logo_Blanc" transform="translate(0 0.001)">
    <g id="Group_1798" data-name="Group 1798" transform="translate(24.274 28.19)">
      <path id="Path_6760" data-name="Path 6760" d="M115.717,178.98a2.875,2.875,0,0,0-2.042.845l-6.366,6.366.224.226a2.892,2.892,0,0,0,4.086,0l6.366-6.366-.224-.226A2.871,2.871,0,0,0,115.717,178.98Z" transform="translate(-107.31 -166.411)" fill="#00007f"/>
      <path id="Path_6761" data-name="Path 6761" d="M165.517,128.95a2.749,2.749,0,0,0-1.953.809l-6.455,6.455.315.317a2.763,2.763,0,0,0,3.906,0l6.455-6.455-.315-.317A2.745,2.745,0,0,0,165.517,128.95Z" transform="translate(-145.736 -127.808)" fill="#00007f"/>
      <path id="Path_6762" data-name="Path 6762" d="M163.421,173.74l-.224.226a2.887,2.887,0,0,0,0,4.086l6.366,6.366.226-.226a2.892,2.892,0,0,0,0-4.086l-6.366-6.366Z" transform="translate(-149.779 -162.368)" fill="#00007f"/>
      <path id="Path_6763" data-name="Path 6763" d="M113.621,123.95l-.226.226a2.892,2.892,0,0,0,0,4.086l6.366,6.366.226-.226a2.892,2.892,0,0,0,0-4.086Z" transform="translate(-111.353 -123.95)" fill="#00007f"/>
    </g>
    <path id="Path_6764" data-name="Path 6764" d="M206.69,137.694c0-6.841,5-10.554,10.125-10.554s10.554,3.714,9.732,11.765h-16.73c.509,4.262,3.753,6.528,7.663,6.528a8.158,8.158,0,0,0,6.059-2.462l1.642,1.681a10.231,10.231,0,0,1-8.053,3.6,10.1,10.1,0,0,1-10.436-10.554h0Zm16.963-1.29a6.555,6.555,0,0,0-6.8-6.411,6.867,6.867,0,0,0-7.037,6.411Z" transform="translate(-159.717 -98.221)" fill="#00007f"/>
    <path id="Path_6765" data-name="Path 6765" d="M65.03,23.7S87.516,4.055,110,.979s24.619,10.415,24.619,10.415-7.549-6.155-17.516-6.155c-14.373,0-28.406,5.68-52.078,18.464h0Z" transform="translate(-50.412 -0.523)" fill="#00007f"/>
    <path id="Path_6766" data-name="Path 6766" d="M184.99,48.1s26.453-11.185,39.947-1.953c4.438,3.2,6.925,6.747,6.569,12.249,0,0-5.5-20.239-46.516-10.3Z" transform="translate(-142.973 -32.907)" fill="#00007f"/>
    <path id="Path_6767" data-name="Path 6767" d="M19.128,127.531v2.791a10.554,10.554,0,1,0,0,14.746v2.791h3.284V127.531Zm-7.544,17.708a7.544,7.544,0,1,1,7.544-7.544A7.545,7.545,0,0,1,11.584,145.238Z" transform="translate(-1.03 -98.221)" fill="#00007f"/>
    <path id="Path_6768" data-name="Path 6768" d="M422.458,127.531v2.791a10.554,10.554,0,1,0,0,14.746v2.791h3.284V127.531Zm-7.544,17.708a7.544,7.544,0,1,1,7.544-7.544A7.545,7.545,0,0,1,414.914,145.238Z" transform="translate(-312.239 -98.221)" fill="#00007f"/>
    <path id="Path_6769" data-name="Path 6769" d="M377.344,128.85h0v17.043a3.286,3.286,0,0,1-3.284,3.284h0V132.134A3.286,3.286,0,0,1,377.344,128.85Z" transform="translate(-288.86 -99.541)" fill="#00007f"/>
    <path id="Path_6770" data-name="Path 6770" d="M313.444,130.036v-1.82H310.16v20.328h3.284V137.583c.08-1.75.907-6.658,7.7-6.658v-2.944s-4.463-.589-7.7,2.053h0Z" transform="translate(-239.554 -98.827)" fill="#00007f"/>
  </g>
</svg>
