<?xml version="1.0" encoding="UTF-8"?><svg id="a" xmlns="http://www.w3.org/2000/svg" viewBox="0 0 499 221"><defs><style>.b{fill:#009fdf;}.c{fill:#0056a4;}</style></defs><g><path class="c" d="M144.12,178.98c-3.38,0-6.55,1.32-8.94,3.7l-27.87,27.87,.98,.99c2.38,2.38,5.56,3.7,8.95,3.7s6.56-1.31,8.94-3.7l27.87-27.87-.98-.99c-2.39-2.39-5.57-3.7-8.95-3.7Z"/><path class="c" d="M193.92,128.95c-3.23,0-6.26,1.26-8.55,3.54l-28.26,28.26,1.38,1.39c2.28,2.28,5.32,3.54,8.55,3.54s6.26-1.26,8.55-3.54l28.26-28.26-1.38-1.39c-2.28-2.28-5.32-3.54-8.55-3.54Z"/><path class="c" d="M167.04,173.74l-.98,.99c-2.39,2.39-3.71,5.57-3.71,8.94s1.32,6.55,3.71,8.95l27.87,27.87,.99-.99c2.39-2.38,3.7-5.56,3.7-8.94s-1.31-6.56-3.7-8.95l-27.87-27.87Z"/><path class="c" d="M117.24,123.95l-.99,.99c-2.39,2.38-3.7,5.56-3.7,8.95s1.31,6.56,3.7,8.94l27.87,27.87,.99-.99c2.39-2.39,3.7-5.56,3.7-8.95s-1.31-6.56-3.7-8.94l-27.87-27.87Z"/></g><path class="c" d="M206.69,173.35c0-29.95,21.91-46.21,44.33-46.21s46.21,16.26,42.61,51.51h-73.25c2.23,18.66,16.43,28.58,33.55,28.58,10.44,0,20.02-3.76,26.53-10.78l7.19,7.36c-8.04,9.93-20.88,15.74-35.26,15.74-23.96,0-45.69-16.6-45.69-46.21Zm74.27-5.65c-1.03-18.31-14.89-28.07-29.78-28.07s-28.58,9.41-30.81,28.07h60.58Z"/><path class="b" d="M65.03,102.01S163.48,15.99,261.94,2.52c98.46-13.47,107.79,45.6,107.79,45.6,0,0-33.05-26.95-76.69-26.95-62.93,0-124.37,24.87-228.01,80.84Z"/><path class="b" d="M184.99,67.03s115.82-48.97,174.9-8.55c19.43,13.99,30.32,29.54,28.76,53.63,0,0-24.1-88.61-203.66-45.08Z"/><path class="c" d="M80.27,128.85v12.22c-8.39-8.58-20.08-13.93-33.03-13.93-25.52,0-46.21,20.69-46.21,46.21s20.69,46.21,46.21,46.21c12.95,0,24.64-5.34,33.03-13.93v12.22h14.38v-89h-14.38Zm-33.03,77.53c-18.24,0-33.03-14.79-33.03-33.03s14.79-33.03,33.03-33.03,33.03,14.79,33.03,33.03-14.79,33.03-33.03,33.03Z"/><path class="c" d="M483.6,128.85v12.22c-8.39-8.58-20.08-13.93-33.03-13.93-25.52,0-46.21,20.69-46.21,46.21s20.69,46.21,46.21,46.21c12.95,0,24.64-5.34,33.03-13.93v12.22h14.38v-89h-14.38Zm-33.03,77.53c-18.24,0-33.03-14.79-33.03-33.03s14.79-33.03,33.03-33.03,33.03,14.79,33.03,33.03-14.79,33.03-33.03,33.03Z"/><path class="c" d="M388.44,128.85h0v74.62c0,7.93-6.44,14.38-14.38,14.38h0v-74.62c0-7.93,6.44-14.38,14.38-14.38Z"/><path class="c" d="M324.54,137.17v-7.97h-14.38v89h14.38v-47.99c.35-7.66,3.97-29.15,33.71-29.15v-12.89s-19.54-2.58-33.71,8.99Z"/></svg>